<svg xmlns="http://www.w3.org/2000/svg" viewBox="0 0 385.23 99.3"><defs><style>.cls-1{fill:#2e3853;}.cls-2{fill:#acbae0;}</style></defs><g id="Слой_2" data-name="Слой 2"><g id="Слой_1-2" data-name="Слой 1"><path class="cls-1" d="M15.7,5V64H10V5H0V0H25.5V5Z"/><path class="cls-1" d="M53.4,64V33.3H38V64H32.3V0H38V28.1H53.4V0h5.7V64Z"/><path class="cls-1" d="M69.3,64V0H90.1V5H75V28.9H88.7V34H75V59H90.3v5Z"/><path class="cls-1" d="M122.8,64H103.5c-3.7,0-5.8-2.1-5.8-5.9V42.9h9.5V56h11.9V43.4L99.9,25.2c-1.6-1.4-2.1-2.7-2.1-5.1V5.9c0-3.8,2.1-5.9,5.8-5.9h19.3c3.7,0,5.8,2.1,5.8,5.8V20.1h-9.6V8H107.4V19.6l19.2,18.1a6.09,6.09,0,0,1,2.1,5.2V58.1C128.6,61.9,126.5,64,122.8,64Z"/><path class="cls-1" d="M136.2,64V0h26.3V8.5H145.7V27.2h14.4v8.3H145.7V55.6h17v8.5H136.2Z"/><path class="cls-1" d="M184.8,64H175L189.3,8.2H167.9V0h31.7V6.1Z"/><path class="cls-1" d="M205.4,64V0h26.3V8.5H214.9V27.2h14.4v8.3H214.9V55.6h17v8.5H205.4Z"/><path class="cls-1" d="M262.6,64,247.3,23.7a30.25,30.25,0,0,1,.6,4.6V64h-9.3V0H247l15.3,39.5a30.25,30.25,0,0,1-.6-4.6V0H271V64Z"/><path class="cls-1" d="M199.3,99.3l-.9-5.7h-5.1l-.9,5.7h-2.2v-.1l4.6-25.6H197l4.5,25.6v.1Zm-3.4-21.6-2.2,13.9h4.5Z"/><path class="cls-1" d="M213.2,99.3h-6.7a1.68,1.68,0,0,1-1.8-1.8v-22a1.68,1.68,0,0,1,1.8-1.8h6.7a1.68,1.68,0,0,1,1.8,1.8v6h-2.3V75.7h-5.8V97.3h5.8V88.5H210v-2h5v11A1.73,1.73,0,0,1,213.2,99.3Z"/><path class="cls-1" d="M219.1,99.3V73.7h8.3v2h-6v9.5h5.5v2h-5.5v10h6.1v2h-8.4Z"/><path class="cls-1" d="M240,99.3l-6.8-18.8V99.3h-2.1V73.7h1.7l6.7,18.5V73.7h2.1V99.3Z"/><path class="cls-1" d="M254.1,99.3h-6.6a1.68,1.68,0,0,1-1.8-1.8v-22a1.68,1.68,0,0,1,1.8-1.8h6.6a1.68,1.68,0,0,1,1.8,1.8v6h-2.3V75.7h-5.7V97.3h5.7V91h2.3v6.5A1.73,1.73,0,0,1,254.1,99.3Z"/><path class="cls-1" d="M265.5,89.4v9.9h-2.3V89.4l-4.7-15.5v-.1h2.3l3.5,12.8,3.5-12.8h2.3v.1Z"/><path class="cls-2" d="M300.14,22.53a8.53,8.53,0,0,1-2.52-.36,7.31,7.31,0,0,1-2.17-1.11,2,2,0,0,1-.27-.3,1,1,0,0,1-.21-.37,8.19,8.19,0,0,1-.3-1.83c-.06-.73-.09-1.39-.12-2a.38.38,0,0,1,.2-.34.87.87,0,0,1,.44-.11.81.81,0,0,1,.37.08.57.57,0,0,1,.21.31,7.49,7.49,0,0,0,2,3.62,4.18,4.18,0,0,0,2.84,1.19,3.37,3.37,0,0,0,3.1-1.77,3.81,3.81,0,0,0,.44-1.83,4.22,4.22,0,0,0-.41-2,4.32,4.32,0,0,0-1.21-1.37,20,20,0,0,0-2-1.31c-.85-.51-1.69-1-2.5-1.59a8,8,0,0,1-2-1.95,4.6,4.6,0,0,1-.8-2.74,5.64,5.64,0,0,1,.82-3,5.67,5.67,0,0,1,2.37-2.1,8.23,8.23,0,0,1,3.77-.79,8.37,8.37,0,0,1,2.08.24,9.64,9.64,0,0,1,1.52.5.9.9,0,0,1,.46.32,1.52,1.52,0,0,1,.27.54c.11.45.23,1,.35,1.56a8.53,8.53,0,0,1,.2,1.82c0,.23-.17.35-.51.35a1.14,1.14,0,0,1-.55-.13.59.59,0,0,1-.32-.32A7.15,7.15,0,0,0,304.08,3a3.28,3.28,0,0,0-2.38-.92,4.42,4.42,0,0,0-1.74.33,2.68,2.68,0,0,0-1.24,1.09,3.67,3.67,0,0,0-.47,2,2.58,2.58,0,0,0,.59,1.61,7.36,7.36,0,0,0,1.6,1.44c.67.45,1.42.93,2.25,1.41a22.68,22.68,0,0,1,2.36,1.66,7,7,0,0,1,1.66,2,5.48,5.48,0,0,1,.6,2.64,6.28,6.28,0,0,1-.89,3.43,5.72,5.72,0,0,1-2.5,2.15A9.07,9.07,0,0,1,300.14,22.53Z"/><path class="cls-2" d="M310,22.18a2,2,0,0,1-.59-.08.3.3,0,0,1-.24-.3c0-.28.31-.48.93-.61a4,4,0,0,0,1.79-.7,1.93,1.93,0,0,0,.57-1.56V4.51A2.19,2.19,0,0,0,312,3a3.31,3.31,0,0,0-1.66-.71c-.61-.13-.92-.34-.92-.64a.32.32,0,0,1,.22-.32,1.55,1.55,0,0,1,.58-.1c.55,0,1,0,1.48,0l1.26.06c.4,0,.84,0,1.31,0s.86,0,1.26,0l1.21,0c.41,0,.89,0,1.42,0a2,2,0,0,1,.61.07.32.32,0,0,1,.22.31.45.45,0,0,1-.24.4,2.71,2.71,0,0,1-.69.24,4,4,0,0,0-1.74.73,2,2,0,0,0-.49,1.53V18.93a1.82,1.82,0,0,0,.61,1.53,4.36,4.36,0,0,0,1.78.73,2.35,2.35,0,0,1,.7.23.41.41,0,0,1,.23.38.29.29,0,0,1-.21.28,1.33,1.33,0,0,1-.59.1c-.53,0-1,0-1.47-.05l-1.29-.08q-.62,0-1.32,0c-.51,0-1,0-1.42,0l-1.36.08C311.06,22.17,310.56,22.18,310,22.18Z"/><path class="cls-2" d="M341.15,22.63a3.23,3.23,0,0,1-1.19-.5,5.54,5.54,0,0,1-1.71-1.61c-.23-.25-.59-.66-1.07-1.23l-1.69-2c-.65-.74-1.34-1.54-2.07-2.39l-2.2-2.54L329.14,10c-.64-.75-1.22-1.4-1.72-2s-.87-1-1.13-1.24a2.31,2.31,0,0,0-.3-.35.42.42,0,0,0-.27-.13c-.09,0-.15.08-.2.24a1.77,1.77,0,0,0-.06.43q0,1.53,0,3.54c0,1.34,0,2.72,0,4.13s0,2.74,0,4a2.62,2.62,0,0,0,.51,1.61,2.73,2.73,0,0,0,1.72.94,3.4,3.4,0,0,1,.72.23.4.4,0,0,1,.27.38c0,.13-.09.22-.26.28a1.67,1.67,0,0,1-.63.1,11.52,11.52,0,0,1-1.33-.05l-.84-.06-1,0c-.41,0-.75,0-1,0l-.85.07q-.4,0-1,0a2.33,2.33,0,0,1-.62-.08q-.27-.08-.27-.3a.43.43,0,0,1,.26-.37,3.82,3.82,0,0,1,.73-.27,2.15,2.15,0,0,0,1.28-.94,3.66,3.66,0,0,0,.47-1.64c.09-.81.18-1.87.28-3.19s.17-2.8.23-4.44.1-3.32.1-5.07a3,3,0,0,0-.86-2.42A6.66,6.66,0,0,0,321,2.28c-.11,0-.29-.13-.56-.26s-.4-.28-.4-.48a.38.38,0,0,1,.29-.38,1.65,1.65,0,0,1,.48-.09l1.45,0,1.19,0,1.22.05,1.49,0a.62.62,0,0,1,.45.14,1.85,1.85,0,0,1,.29.33L328,3l1.75,2.11c.67.8,1.39,1.66,2.16,2.56l2.29,2.73L336.4,13c.68.81,1.27,1.51,1.77,2.09l1.07,1.26.34.35a.55.55,0,0,0,.36.23c.19,0,.3-.2.32-.61V14.4c0-.85,0-1.84,0-3s0-2.31,0-3.55,0-2.49,0-3.72a1.55,1.55,0,0,0-.67-1.2,3.39,3.39,0,0,0-1.37-.65,3.61,3.61,0,0,1-.83-.22c-.25-.11-.38-.25-.38-.42s.13-.22.38-.29a3.23,3.23,0,0,1,.73-.09h2.27l1.18,0,1,0c.35,0,.84,0,1.45,0a1.7,1.7,0,0,1,.62.1.33.33,0,0,1,.24.32c0,.3-.33.51-1,.64a3.45,3.45,0,0,0-1.57.59A1.61,1.61,0,0,0,341.86,4c0,.34,0,.9,0,1.68s0,1.68,0,2.72,0,2.14,0,3.29,0,2.27,0,3.38v3c0,.51,0,1,.06,1.48s.08.89.11,1.25.05.61.05.78a1.11,1.11,0,0,1-.22.81A.77.77,0,0,1,341.15,22.63Z"/><path class="cls-2" d="M358.12,22.53a13,13,0,0,1-4.42-.76A11.88,11.88,0,0,1,350,19.6a10,10,0,0,1-3.51-7.79,9.82,9.82,0,0,1,.95-4.25,10.74,10.74,0,0,1,2.67-3.48,12.76,12.76,0,0,1,4-2.33A14,14,0,0,1,359,.91a16.73,16.73,0,0,1,2.11.11,16.51,16.51,0,0,1,1.78.3c.58.13,1.19.3,1.85.51a1.35,1.35,0,0,1,.62.35,1.05,1.05,0,0,1,.24.67c.07.56.13,1.13.18,1.72s.09,1.26.11,2a.45.45,0,0,1-.24.42.67.67,0,0,1-.52,0,.54.54,0,0,1-.39-.43A11.42,11.42,0,0,0,364,4.7a3.53,3.53,0,0,0-1.11-1.37A5.33,5.33,0,0,0,361,2.44a9.43,9.43,0,0,0-2.54-.32,7.34,7.34,0,0,0-3.28.73,7.69,7.69,0,0,0-2.55,2A9.84,9.84,0,0,0,351,7.7a9.56,9.56,0,0,0-.59,3.32,13.4,13.4,0,0,0,.56,3.86,10.5,10.5,0,0,0,1.63,3.28,8,8,0,0,0,2.6,2.28,6.94,6.94,0,0,0,3.44.85,6.53,6.53,0,0,0,3.8-1,8.06,8.06,0,0,0,2.52-3,.71.71,0,0,1,.67-.45q.45,0,.45.51a4.39,4.39,0,0,1-.12.88,11.81,11.81,0,0,1-.3,1.21c-.13.44-.25.84-.38,1.2a2.29,2.29,0,0,1-.35.57,1.75,1.75,0,0,1-.61.32,12.25,12.25,0,0,1-2.85.77A22,22,0,0,1,358.12,22.53Z"/><path class="cls-2" d="M369.64,22.21a1.67,1.67,0,0,1-.61-.09.31.31,0,0,1-.22-.29c0-.28.31-.48.92-.61a3.93,3.93,0,0,0,1.71-.71,2,2,0,0,0,.53-1.58V4.51A2.24,2.24,0,0,0,371.52,3a3,3,0,0,0-1.63-.7,1.9,1.9,0,0,1-.7-.26.46.46,0,0,1-.22-.38.34.34,0,0,1,.22-.31,1.45,1.45,0,0,1,.61-.11c.7,0,1.33,0,1.89,0l1.66.06q.81,0,1.77,0c.85,0,1.75,0,2.7,0l2.57,0c.72,0,1.32,0,1.8-.05l.84-.05a1.19,1.19,0,0,1,.4.08.36.36,0,0,1,.24.3c.11.66.22,1.31.34,1.93a9.82,9.82,0,0,1,.17,1.65.55.55,0,0,1-.14.43.53.53,0,0,1-.31.11.32.32,0,0,1-.25-.1,1.13,1.13,0,0,1-.19-.28q-.23-.65-.42-1.17a2,2,0,0,0-.44-.78,2.74,2.74,0,0,0-1-.67,3.14,3.14,0,0,0-1.21-.22h-3.57a1.63,1.63,0,0,0-.88.3,1,1,0,0,0-.46.85v6.5a.66.66,0,0,0,.19.51.59.59,0,0,0,.44.19h3a1.6,1.6,0,0,0,1.28-.41,3.19,3.19,0,0,0,.57-1.28c.15-.42.36-.63.61-.63a.37.37,0,0,1,.29.14.65.65,0,0,1,.13.43c0,.13,0,.34,0,.64s0,.6-.06.92,0,.58,0,.77,0,.51,0,.84,0,.66.05,1,0,.55,0,.7a.94.94,0,0,1,0,.46.27.27,0,0,1-.24.18c-.34,0-.6-.31-.77-.93a3,3,0,0,0-.53-1.24,1.15,1.15,0,0,0-1-.42h-3a1.39,1.39,0,0,0-.75.16.76.76,0,0,0-.24.67v6.09a2.06,2.06,0,0,0,.47,1.55,2.13,2.13,0,0,0,1.47.43h2.52a7.91,7.91,0,0,0,1.56-.13,2.77,2.77,0,0,0,1.15-.47,4.12,4.12,0,0,0,1-1,13.75,13.75,0,0,0,.86-1.5,1.7,1.7,0,0,1,.26-.31.32.32,0,0,1,.28-.08.27.27,0,0,1,.27.15.68.68,0,0,1,.08.37,5,5,0,0,1-.16,1.05c-.1.47-.23.95-.39,1.46s-.31.95-.43,1.31a1.46,1.46,0,0,1-.23.37.39.39,0,0,1-.32.14l-2.39,0-2.55-.06-2.62-.07-2.58,0c-.45,0-.87,0-1.28.05l-1.22.1C370.64,22.2,370.17,22.21,369.64,22.21Z"/><path class="cls-2" d="M307.18,54.57l-.76,0c-.38,0-.82,0-1.32,0l-1.55-.06-1.47,0-1.67,0-2.11.05-1.85,0-1,0a1,1,0,0,1-.37-.19q-.27-.2-.27-.36a.36.36,0,0,1,.1-.28l.22-.23L300.3,48a14.93,14.93,0,0,0,2.59-3.7,9.27,9.27,0,0,0,1-4.15,3.49,3.49,0,0,0-.89-2.5,3,3,0,0,0-2.24-.94,4.24,4.24,0,0,0-2.31.68,5.91,5.91,0,0,0-1.74,1.71,1.5,1.5,0,0,1-.32.35.59.59,0,0,1-.41.16c-.11,0-.21-.09-.31-.26a1.33,1.33,0,0,1-.14-.63,2.31,2.31,0,0,1,.48-1.14,7.64,7.64,0,0,1,1.34-1.45,7.87,7.87,0,0,1,2-1.24,6.38,6.38,0,0,1,2.55-.51,5.34,5.34,0,0,1,2.75.68A4.56,4.56,0,0,1,306.42,37a6,6,0,0,1,.61,2.72,6.14,6.14,0,0,1-.34,1.88,10,10,0,0,1-.88,2,11.16,11.16,0,0,1-1.21,1.76c-.27.34-.67.77-1.19,1.3l-1.66,1.68-1.68,1.66-1.29,1.29a2.79,2.79,0,0,0-.49.57c0,.09.14.15.44.19s.82.08,1.29.1,1,0,1.55,0,1.14,0,1.71,0,1.11,0,1.64-.1a7.76,7.76,0,0,0,1.37-.19,1.81,1.81,0,0,0,.88-.48,4.36,4.36,0,0,0,.72-1,3.5,3.5,0,0,1,.35-.45.65.65,0,0,1,.48-.26.25.25,0,0,1,.25.16.6.6,0,0,1,0,.32,9.88,9.88,0,0,1-.32,1c-.14.43-.29.88-.44,1.36a12.29,12.29,0,0,0-.35,1.35.78.78,0,0,1-.31.59A.8.8,0,0,1,307.18,54.57Z"/><path class="cls-2" d="M317.3,54.92a5.08,5.08,0,0,1-3-.89,7.26,7.26,0,0,1-2.1-2.38A12.34,12.34,0,0,1,311,48.38a15.41,15.41,0,0,1-.42-3.54,16.6,16.6,0,0,1,.42-3.67,12.33,12.33,0,0,1,1.28-3.38,7.3,7.3,0,0,1,2.2-2.47,5.42,5.42,0,0,1,3.22-.94,5.13,5.13,0,0,1,3,.89,7,7,0,0,1,2.1,2.38A12.31,12.31,0,0,1,324,40.9a15.12,15.12,0,0,1,.42,3.49A17,17,0,0,1,324,48a12.75,12.75,0,0,1-1.26,3.41,7.49,7.49,0,0,1-2.2,2.52A5.43,5.43,0,0,1,317.3,54.92Zm.54-1.05a2.14,2.14,0,0,0,1.9-1.26,9.87,9.87,0,0,0,1.05-3.29,27.07,27.07,0,0,0,.33-4.35,23.16,23.16,0,0,0-.25-3.45,15.55,15.55,0,0,0-.77-3.06,6.4,6.4,0,0,0-1.27-2.18,2.34,2.34,0,0,0-1.76-.82,2.12,2.12,0,0,0-1.88,1.23,9.51,9.51,0,0,0-1,3.24,28,28,0,0,0-.32,4.34,23.63,23.63,0,0,0,.26,3.47,16.19,16.19,0,0,0,.75,3.1,7,7,0,0,0,1.22,2.2A2.29,2.29,0,0,0,317.84,53.87Z"/><path class="cls-2" d="M333.15,54.92a5,5,0,0,1-3-.89,7.29,7.29,0,0,1-2.11-2.38,12.34,12.34,0,0,1-1.26-3.27,15.4,15.4,0,0,1-.41-3.54,16.58,16.58,0,0,1,.41-3.67,12.33,12.33,0,0,1,1.28-3.38,7.3,7.3,0,0,1,2.2-2.47,5.42,5.42,0,0,1,3.22-.94,5.13,5.13,0,0,1,3,.89,7,7,0,0,1,2.1,2.38,12.68,12.68,0,0,1,1.25,3.25,15.67,15.67,0,0,1,.41,3.49,17,17,0,0,1-.4,3.64,12.1,12.1,0,0,1-1.26,3.41A7.49,7.49,0,0,1,336.4,54,5.43,5.43,0,0,1,333.15,54.92Zm.54-1.05a2.14,2.14,0,0,0,1.9-1.26,9.87,9.87,0,0,0,1.05-3.29A27,27,0,0,0,337,45a23.16,23.16,0,0,0-.26-3.45,15.56,15.56,0,0,0-.76-3.06,6.58,6.58,0,0,0-1.28-2.18,2.33,2.33,0,0,0-1.75-.82A2.12,2.12,0,0,0,331,36.69a9.74,9.74,0,0,0-1,3.24,28,28,0,0,0-.32,4.34,23.63,23.63,0,0,0,.26,3.47,16.19,16.19,0,0,0,.75,3.1,6.85,6.85,0,0,0,1.23,2.2A2.27,2.27,0,0,0,333.69,53.87Z"/><path class="cls-2" d="M349,54.92a6.77,6.77,0,0,1-2.95-.64,5.64,5.64,0,0,1-2.18-1.75,4.2,4.2,0,0,1-.83-2.59,3.52,3.52,0,0,1,.73-2.26,6.7,6.7,0,0,1,1.75-1.56c.68-.43,1.3-.8,1.85-1.12q.25-.12.18-.21l-.27-.24c-.64-.53-1.24-1-1.8-1.58a6.79,6.79,0,0,1-1.38-1.75,4.67,4.67,0,0,1-.52-2.25,3.43,3.43,0,0,1,.91-2.36A6.46,6.46,0,0,1,346.82,35a7.36,7.36,0,0,1,2.91-.6,6.3,6.3,0,0,1,2.57.54,5.1,5.1,0,0,1,2,1.52,3.59,3.59,0,0,1,.76,2.31,3,3,0,0,1-.57,1.91,6.57,6.57,0,0,1-1.18,1.18l-.77.56-.83.59c-.3.19-.44.33-.44.41s.09.19.28.29c.79.56,1.5,1.09,2.12,1.61A6.38,6.38,0,0,1,355.14,47a4.27,4.27,0,0,1,.53,2.16,4.92,4.92,0,0,1-1,3,6.5,6.5,0,0,1-2.47,2A7.46,7.46,0,0,1,349,54.92Zm.48-1.09a2.8,2.8,0,0,0,2.18-1,3.28,3.28,0,0,0,.88-2.28,3.32,3.32,0,0,0-.56-1.82,8.61,8.61,0,0,0-1.38-1.62,19.68,19.68,0,0,0-1.66-1.37,2.91,2.91,0,0,0-.32-.24.49.49,0,0,0-.29-.08.91.91,0,0,0-.38.22,4.94,4.94,0,0,0-1.34,1.59,5.11,5.11,0,0,0-.42,2.27,5.51,5.51,0,0,0,.39,2.06,4,4,0,0,0,1.13,1.61A2.67,2.67,0,0,0,349.48,53.83Zm1.08-11A3.6,3.6,0,0,0,351.78,41a9.39,9.39,0,0,0,.28-2.39,4,4,0,0,0-.62-2.25,2.17,2.17,0,0,0-2-.94,2.62,2.62,0,0,0-1.36.38,3.39,3.39,0,0,0-1.08,1,2.56,2.56,0,0,0-.43,1.47,3.22,3.22,0,0,0,.45,1.78,4.94,4.94,0,0,0,1.22,1.3q.78.59,1.77,1.41a.67.67,0,0,0,.27.13A.25.25,0,0,0,350.56,42.8Z"/></g></g></svg>